<svg width="315" height="48" viewBox="0 0 315 48" fill="none" xmlns="http://www.w3.org/2000/svg">
<path d="M218.042 1.00999H218.052L218.042 1V1.00999Z" fill="#212121"/>
<path fill-rule="evenodd" clip-rule="evenodd" d="M218.042 1.00999H210.775V14.4361C207.421 12.0903 203.818 10.9324 200.054 10.9523C195.083 10.9923 190.491 12.9887 187.127 16.5624C183.983 19.9164 182.176 24.4283 182.176 28.9303C182.176 37.7946 189.004 46.9683 200.424 46.9683C205.065 46.9683 209.428 45.2114 212.722 42.0271C216.176 38.683 218.082 34.0512 218.082 28.9503L218.042 1.00999ZM189.453 28.9603C189.453 34.8798 194.255 39.6912 200.154 39.6912C206.054 39.6912 210.855 34.8798 210.855 28.9603C210.855 23.0408 206.054 18.2294 200.154 18.2294C194.255 18.2294 189.453 23.0408 189.453 28.9603Z" fill="#212121"/>
<path d="M51.4532 24.9962L51.4583 24.9973H51.4483L51.4936 25.0079C57.7049 26.4735 65.403 28.29 65.1639 35.858C64.9543 42.7059 59.1047 46.9683 49.9011 46.9683C44.0016 46.9683 39.6793 45.1316 37.054 41.488C35.1173 38.8128 34.728 35.9978 34.6482 34.9796H41.466C41.6957 36.2074 43.0133 40.8492 49.9011 40.8492C54.6925 40.8492 57.9169 38.8527 57.9169 35.868C57.9169 33.7917 55.6509 32.5939 49.2522 31.3161C39.4896 29.0202 36.6646 26.7742 36.6646 21.3239C36.6646 15.1049 41.9353 10.9224 49.7813 10.9224H49.9011C60.652 10.9823 63.2074 18.9781 63.6766 21.0244H57.1881C57.1881 21.0244 56.13 19.8365 55.7707 19.4472C54.3232 17.89 52.1471 17.0415 49.9011 17.0415C46.3274 17.0415 43.9218 18.5787 43.9218 20.9046C43.9218 23.2295 47.4126 24.0485 51.4532 24.9962Z" fill="#212121"/>
<path fill-rule="evenodd" clip-rule="evenodd" d="M124.528 10.9224C135.249 11.0122 139.851 19.3574 140.66 21.0344H140.65C142.167 24.1389 142.756 27.7225 142.337 31.1264L142.317 31.2961H114.057C115.135 36.1675 119.507 39.6912 124.508 39.6912H124.748C128.641 39.6912 132.145 37.545 134.022 34.3008C134.051 34.2609 134.061 34.2309 134.061 34.2309H141.668L141.638 34.3807C141.498 35.0395 140.46 38.0641 137.895 40.959C135.559 43.5943 131.346 46.7886 124.518 46.9683H124.199C121.424 46.9683 118.12 46.0499 115.485 44.5226C110.074 41.3982 106.49 35.1293 106.57 28.9203C106.64 23.2704 109.226 17.9598 113.478 14.7356C117.691 11.5413 121.803 10.9224 124.528 10.9224ZM124.528 18.2094C120.446 18.2094 116.692 20.5652 114.906 24.2287H134.151C132.355 20.5652 128.611 18.2094 124.528 18.2094Z" fill="#212121"/>
<path d="M146.619 24.8276C146.619 16.9017 153.387 10.9224 162.341 10.9224C171.295 10.9224 178.063 16.9017 178.063 24.8276V46.9484H170.746L170.736 26.9439C170.736 20.9445 166.384 18.2094 162.341 18.2094C158.298 18.2094 153.946 20.9445 153.946 26.9439L153.936 46.9484H146.619V24.8276Z" fill="#212121"/>
<path d="M238.945 46.9583C247.899 46.9583 254.667 40.9789 254.667 33.053V10.9224H247.35L247.34 30.9268C247.34 36.9261 242.988 39.6613 238.945 39.6613C234.902 39.6613 230.55 36.9261 230.55 30.9268L230.54 10.9224H223.223V33.043C223.223 40.9689 229.991 46.9484 238.945 46.9484V46.9583Z" fill="#212121"/>
<path d="M299.378 10.9224C294.456 10.9224 290.214 12.7591 287.399 15.7338C284.584 12.7591 280.332 10.9224 275.42 10.9224C266.526 10.9224 259.808 16.9017 259.808 24.8276V46.9484H267.075L267.085 26.9439C267.085 20.9445 271.408 18.2094 275.42 18.2094C279.433 18.2094 283.755 20.9445 283.755 26.9439L283.765 46.9484H291.043L291.053 26.9439C291.053 20.9445 295.375 18.2094 299.388 18.2094C303.4 18.2094 307.723 20.9445 307.723 26.9439L307.733 46.9484H315V24.8276C315 16.9017 308.282 10.9224 299.388 10.9224H299.378Z" fill="#212121"/>
<path d="M95.8196 32.1147L95.8595 31.9949L103.346 31.955L103.316 32.1048L103.256 32.4441C103.233 32.5736 103.199 32.6995 103.165 32.8261L103.165 32.8271C103.141 32.9148 103.117 33.0033 103.097 33.093C103.078 33.17 103.061 33.2469 103.043 33.3236C103.004 33.4956 102.965 33.666 102.917 33.8317C102.868 34.0052 102.81 34.174 102.752 34.3412L102.751 34.3444C102.726 34.4166 102.701 34.4885 102.677 34.5603L102.675 34.5676C102.586 34.8347 102.497 35.1018 102.398 35.359C102.328 35.5387 102.248 35.7183 102.168 35.898L102.063 36.1395C101.961 36.3745 101.861 36.6054 101.749 36.8363C101.724 36.8857 101.697 36.9351 101.67 36.9845L101.669 36.9861C101.642 37.036 101.614 37.0859 101.589 37.1358C101.49 37.3351 101.387 37.5316 101.281 37.7254C101.184 37.9005 101.085 38.0733 100.98 38.2438C100.97 38.2538 100.96 38.2638 100.96 38.2738C98.0257 43.0752 92.9447 46.3394 87.125 46.8485C86.5959 46.8985 86.0669 46.9184 85.5279 46.9184C83.6612 46.9184 81.8545 46.6389 80.1574 46.1098C72.8005 43.8239 67.44 36.9761 67.44 28.9004C67.44 24.5482 68.9873 20.5553 71.5727 17.4408C71.942 17.0016 72.3313 16.5724 72.7406 16.1631C73.5591 15.3445 74.4576 14.6058 75.4158 13.957C77.3425 12.6593 79.5285 11.7209 81.8843 11.2418C83.0623 11.0022 84.2801 10.8725 85.5279 10.8725C86.0669 10.8725 86.5959 10.8925 87.125 10.9424H87.1849C92.4556 11.4215 97.1172 14.1666 100.122 18.2594C100.132 18.2693 100.142 18.2893 100.142 18.2893C100.421 18.6686 100.691 19.0679 100.941 19.4772C100.954 19.5015 100.968 19.5272 100.983 19.5536C101.009 19.6026 101.038 19.655 101.07 19.7067C101.28 20.0562 101.479 20.4055 101.659 20.7649C101.694 20.8341 101.726 20.9058 101.758 20.9775L101.775 21.0152L101.795 21.0599C101.816 21.1052 101.837 21.1502 101.859 21.1942C101.886 21.2536 101.913 21.3127 101.939 21.3716C102.052 21.6193 102.163 21.8645 102.268 22.1225C102.348 22.3221 102.418 22.5217 102.488 22.7214C102.54 22.8635 102.593 23.0084 102.644 23.1547C102.69 23.2857 102.735 23.4178 102.777 23.5499L102.78 23.5585C102.849 23.7952 102.918 24.0319 102.977 24.2686C102.994 24.341 103.014 24.4116 103.036 24.4819C103.064 24.5764 103.094 24.6705 103.117 24.7678C103.123 24.7805 103.121 24.7892 103.119 24.7989C103.118 24.8044 103.117 24.8106 103.117 24.8177C103.137 24.9076 103.159 24.9974 103.182 25.0873C103.204 25.1771 103.226 25.2669 103.246 25.3567L103.276 25.5064H95.7497L95.7197 25.4266C95.7197 25.4223 95.7188 25.4185 95.7173 25.4149C95.7157 25.4108 95.7133 25.4071 95.7109 25.4034L95.7099 25.4018C95.7048 25.3943 95.6998 25.3867 95.6998 25.3767C94.2324 21.1642 90.2295 18.1296 85.5179 18.1296C79.6883 18.1296 74.9467 22.7613 74.747 28.5411C74.7371 28.571 74.7371 28.611 74.7371 28.6509V29.1899C74.7427 29.207 74.7451 29.2274 74.7462 29.2491C74.7466 29.2562 74.7467 29.2634 74.7468 29.2707L74.747 29.2997C74.9567 35.0794 79.6883 39.7112 85.5179 39.7112C90.2395 39.7112 94.2324 36.6766 95.6998 32.4641C95.6998 32.4441 95.7197 32.4142 95.7197 32.4142L95.7497 32.3343L95.7996 32.1846C95.7996 32.1547 95.8196 32.1147 95.8196 32.1147Z" fill="#212121"/>
<path d="M21.9195 11.8349L18.731 17.5422C17.0359 17.0641 14.9122 16.9916 13.0571 17.5147C11.7024 17.8967 10.4909 18.5964 9.69444 19.6877C9.40037 20.0907 9.16288 20.5471 8.99563 21.0605L1.9989 21.0605C2.20505 20.136 3.21161 16.4588 6.71698 13.8163C7.46174 13.2549 8.31929 12.7402 9.30593 12.3085C11.1056 11.521 13.3348 11.0098 16.0923 10.9953C18.0639 10.9953 20.034 11.2336 21.9195 11.8249L21.9195 11.8349Z" fill="#212121"/>
<path d="M14.8235 40.687C18.9815 40.687 23.1695 37.5784 23.1695 31.8811V25.9939H30.4261V33.2804C30.4261 34.2837 30.3254 35.2561 30.1312 36.1896C28.7717 42.724 22.8322 47.3538 14.8035 47.3538C5.77773 47.3538 0.243334 42.4118 0.00781276 36.0381C0.0039007 35.9322 0.00145059 35.8259 0.000470724 35.7193C-0.068875 27.9006 7.5359 23.5437 14.6835 24.0248V29.9863C11.4835 29.9863 7.16708 31.2144 7.16708 35.2295C7.16708 35.5569 7.1941 35.8646 7.24494 36.1539C8.00755 40.4937 14.13 40.687 14.8235 40.687Z" fill="#212121"/>
<path d="M20.3558 22.6377C20.2788 22.5641 20.2113 22.4805 20.1561 22.3885C19.9352 22.0204 19.9352 21.5624 20.1561 21.1903L25.9081 11.5964C26.129 11.2243 26.5411 10.9953 26.9871 10.9953C27.0566 10.9953 27.1254 11.0011 27.1929 11.0122C27.4476 11.0542 27.684 11.1727 27.8665 11.3472C27.9435 11.4209 28.011 11.5044 28.0662 11.5964L33.8181 21.1903C34.039 21.5583 34.0391 22.0204 33.8182 22.3885C33.6209 22.7208 33.2677 22.939 32.8798 22.9819C32.8333 22.987 32.7864 22.9896 32.7392 22.9896H21.2352C21.1607 22.9896 21.0868 22.983 21.0146 22.9702C20.7656 22.9261 20.5349 22.8088 20.3558 22.6377Z" fill="#212121"/>
</svg>
